<svg width="16" height="16" viewBox="0 0 16 16" fill="none" xmlns="http://www.w3.org/2000/svg">
    <path fill-rule="evenodd" clip-rule="evenodd"
        d="M2.68209 7.99851C2.68209 4.8689 5.30515 2.33185 8.54085 2.33185C11.7766 2.33185 14.3996 4.8689 14.3996 7.99851C14.3996 11.1281 11.7766 13.6652 8.54085 13.6652C5.30515 13.6652 2.68209 11.1281 2.68209 7.99851ZM8.54085 1.33185C4.73414 1.33185 1.64819 4.31662 1.64819 7.99851C1.64819 11.6804 4.73414 14.6652 8.54085 14.6652C12.3476 14.6652 15.4335 11.6804 15.4335 7.99851C15.4335 4.31662 12.3476 1.33185 8.54085 1.33185ZM5.30365 6.16936C5.07424 6.00499 4.75049 6.05163 4.58055 6.27352C4.41061 6.49542 4.45883 6.80855 4.68825 6.97292L5.83518 7.79464L4.73241 8.42671C4.48679 8.56748 4.40568 8.87419 4.55123 9.11175C4.69678 9.34932 5.01388 9.42778 5.25949 9.287L7.03189 8.27113C7.18086 8.18574 7.27574 8.03388 7.28462 7.86662C7.2935 7.69935 7.2152 7.53889 7.07605 7.4392L5.30365 6.16936ZM10.814 10.1242C10.8849 9.85675 10.7183 9.58427 10.4418 9.51563C10.1652 9.44699 9.8835 9.60818 9.81253 9.87565C9.70682 10.2741 9.49072 10.3515 9.39721 10.3567C9.30289 10.3619 9.12559 10.3089 9.03587 10.0206C8.97013 9.80933 8.76901 9.66471 8.54091 9.66469C8.3128 9.66467 8.11165 9.80925 8.04587 10.0205C7.95606 10.3089 7.77869 10.3619 7.68433 10.3567C7.59086 10.3515 7.37482 10.2741 7.2692 9.87574C7.19828 9.60825 6.9166 9.44702 6.64005 9.51561C6.36349 9.5842 6.19679 9.85665 6.26771 10.1241C6.45738 10.8395 6.97979 11.319 7.62482 11.355C7.96723 11.3741 8.2862 11.264 8.5408 11.0573C8.79536 11.264 9.11432 11.3741 9.45673 11.355C10.1017 11.319 10.6242 10.8396 10.814 10.1242ZM12.501 6.27352C12.331 6.05163 12.0073 6.00499 11.7779 6.16936L10.0055 7.4392C9.86634 7.53889 9.78805 7.69935 9.79692 7.86662C9.8058 8.03388 9.90068 8.18574 10.0497 8.27113L11.822 9.287C12.0677 9.42778 12.3848 9.34932 12.5303 9.11175C12.6759 8.87419 12.5947 8.56748 12.3491 8.42671L11.2464 7.79464L12.3933 6.97292C12.6227 6.80855 12.6709 6.49542 12.501 6.27352Z"
        fill="#61666D"></path>
</svg>