<svg width="16" height="16" viewBox="0 0 16 16" fill="none" xmlns="http://www.w3.org/2000/svg">
    <path
        d="M5.66664 5.64831C5.28832 5.64831 4.98164 5.95499 4.98164 6.33331C4.98164 6.71164 5.28832 7.0183 5.66664 7.0183C6.04496 7.0183 6.35164 6.71164 6.35164 6.33331C6.35164 5.95499 6.04496 5.64831 5.66664 5.64831ZM4.01831 6.33331C4.01831 5.42296 4.7563 4.68497 5.66664 4.68497C6.57699 4.68497 7.31498 5.42296 7.31498 6.33331C7.31498 7.24363 6.57699 7.98163 5.66664 7.98163C4.7563 7.98163 4.01831 7.24363 4.01831 6.33331Z"
        fill="#61666D"></path>
    <path
        d="M7.99992 3.33171C6.32111 3.33171 4.85525 3.41711 3.82051 3.50102C3.10139 3.55933 2.54399 4.10869 2.47992 4.82137C2.40397 5.66621 2.33325 6.78033 2.33325 7.9984C2.33325 9.21643 2.40397 10.3305 2.47992 11.1754C2.54399 11.8881 3.10139 12.4374 3.82051 12.4957C4.85525 12.5797 6.32111 12.6651 7.99992 12.6651C9.67892 12.6651 11.1449 12.5796 12.1797 12.4957C12.8987 12.4374 13.4559 11.8882 13.52 11.1757C13.5959 10.3312 13.6666 9.2173 13.6666 7.9984C13.6666 6.77943 13.5959 5.66552 13.52 4.82104C13.4559 4.10854 12.8987 3.55935 12.1797 3.50104C11.1449 3.41713 9.67892 3.33171 7.99992 3.33171ZM3.73969 2.50429C4.7948 2.41873 6.28831 2.33171 7.99992 2.33171C9.71172 2.33171 11.2053 2.41875 12.2605 2.50431C13.4587 2.60149 14.4078 3.5282 14.516 4.73149C14.5939 5.59761 14.6666 6.74237 14.6666 7.9984C14.6666 9.25437 14.5939 10.3991 14.516 11.2653C14.4078 12.4685 13.4587 13.3953 12.2605 13.4924C11.2053 13.578 9.71172 13.6651 7.99992 13.6651C6.28831 13.6651 4.7948 13.578 3.73969 13.4925C2.54129 13.3953 1.59213 12.4683 1.48394 11.2649C1.40604 10.3985 1.33325 9.25353 1.33325 7.9984C1.33325 6.7432 1.40604 5.59825 1.48394 4.73183C1.59213 3.52842 2.54129 2.60147 3.73969 2.50429Z"
        fill="#61666D"></path>
    <path
        d="M10.5749 9.03546C10.3016 8.76206 9.85837 8.76206 9.58497 9.03543L8.23007 10.3904C7.6608 10.9596 6.73767 10.9594 6.16866 10.3898C5.94341 10.1643 5.57797 10.1642 5.35258 10.3896L4.35353 11.3885C4.15826 11.5837 3.84167 11.5837 3.64643 11.3885C3.45117 11.1932 3.45119 10.8766 3.64647 10.6813L4.64553 9.68243C5.26159 9.06643 6.26043 9.06673 6.87613 9.68306C7.0547 9.8618 7.34433 9.8619 7.52297 9.68326L8.87783 8.32833C9.54177 7.6644 10.6182 7.66443 11.2821 8.32843L12.3536 9.40006C12.5488 9.59533 12.5488 9.9119 12.3535 10.1072C12.1582 10.3024 11.8417 10.3024 11.6464 10.1071L10.5749 9.03546Z"
        fill="#61666D"></path>
</svg>